<svg width="23" height="23" viewBox="0 0 23 23" fill="none" xmlns="http://www.w3.org/2000/svg">
<path d="M2.21395 21L3.22517 16.305C1.92546 14.255 1.41844 11.8012 1.79923 9.40399C2.18003 7.00675 3.42248 4.83084 5.29346 3.2845C7.16445 1.73816 9.53539 0.92766 11.9615 1.00507C14.3875 1.08249 16.702 2.04249 18.4706 3.70497C20.2391 5.36745 21.3403 7.61815 21.5675 10.0348C21.7947 12.4514 21.1323 14.8679 19.7045 16.8309C18.2768 18.7939 16.1818 20.1684 13.8127 20.6966C11.4435 21.2248 8.96307 20.8704 6.83667 19.6999L2.21395 21Z" fill="#25D366" stroke="white" stroke-width="2"/>
<path d="M14.4926 12.3428C14.2759 12.1984 14.0592 12.1261 13.8426 12.4151L12.9758 13.5707C12.7591 13.7152 12.6146 13.7874 12.3257 13.643C11.2423 13.0651 9.72545 12.4151 8.42531 10.2482C8.35308 9.95925 8.49754 9.81479 8.642 9.67033L9.29207 8.65911C9.43653 8.51465 9.3643 8.37019 9.29207 8.22573L8.42531 6.13106C8.20862 5.55322 7.99193 5.62545 7.77524 5.62545H7.1974C7.05294 5.62545 6.76402 5.69768 6.4751 5.9866C4.88604 7.57566 5.53611 9.81479 6.69179 11.2594C6.90848 11.5483 8.35308 14.1486 11.459 15.521C13.7703 16.5322 14.2759 16.3877 14.926 16.2433C15.7205 16.171 16.5151 15.521 16.8762 14.8709C16.9484 14.6542 17.3096 13.7152 17.0207 13.5707" fill="white"/>
</svg>
