<svg width="34" height="34" viewBox="0 0 34 34" fill="none" xmlns="http://www.w3.org/2000/svg">
<path d="M23.426 22.5908L26.4312 19.5856L21.9233 15.0778L26.9321 10.0691L23.9268 7.06394L18.9182 12.0726L14.4103 7.5648L11.4052 10.57L23.426 22.5908ZM21.4225 24.5943L9.40169 12.5735L5.39475 16.5805L17.4155 28.6013L21.4225 24.5943ZM18.9182 8.06566L22.9251 4.05874C23.4784 3.50549 24.3753 3.50549 24.9285 4.05874L29.9373 9.0674C30.4905 9.62064 30.4905 10.5176 29.9373 11.0709L25.9304 15.0778L29.4363 18.5839C29.9897 19.1371 29.9897 20.0341 29.4363 20.5874L18.4174 31.6065C17.864 32.1597 16.9671 32.1597 16.4138 31.6065L2.38955 17.5822C1.8363 17.029 1.8363 16.1319 2.38955 15.5787L13.4086 4.5596C13.9619 4.00636 14.8588 4.00636 15.412 4.5596L18.9182 8.06566Z" fill="#00AE6C"/>
</svg>
