<svg width="34" height="34" viewBox="0 0 34 34" fill="none" xmlns="http://www.w3.org/2000/svg">
<path d="M22.6663 18.4167V7.08333H8.49967V18.4167C8.49967 19.9815 9.7682 21.25 11.333 21.25H19.833C21.3979 21.25 22.6663 19.9815 22.6663 18.4167ZM7.08301 4.25H28.333C29.8979 4.25 31.1663 5.51853 31.1663 7.08333V11.3333C31.1663 12.8981 29.8979 14.1667 28.333 14.1667H25.4997V18.4167C25.4997 21.5462 22.9626 24.0833 19.833 24.0833H11.333C8.20339 24.0833 5.66634 21.5462 5.66634 18.4167V5.66667C5.66634 4.88427 6.30061 4.25 7.08301 4.25ZM25.4997 7.08333V11.3333H28.333V7.08333H25.4997ZM2.83301 26.9167H28.333V29.75H2.83301V26.9167Z" fill="#00AE6C"/>
</svg>
