<svg width="34" height="34" viewBox="0 0 34 34" fill="none" xmlns="http://www.w3.org/2000/svg">
<path d="M7.0905 12.7537C7.87291 12.7537 8.50716 13.388 8.50716 14.1704C10.8231 14.1704 12.9536 14.9643 14.6414 16.2947L17.7155 16.2954C19.6027 16.2954 21.2983 17.1154 22.4656 18.4186L26.9239 18.4204C29.7463 18.4204 32.1831 20.0711 33.3217 22.4599C29.9715 26.8807 24.5465 29.7537 18.4239 29.7537C14.4704 29.7537 11.1277 28.8991 8.42092 27.4049C8.22481 27.9483 7.70305 28.3371 7.0905 28.3371H2.84049C2.0581 28.3371 1.42383 27.7028 1.42383 26.9204V14.1704C1.42383 13.388 2.0581 12.7537 2.84049 12.7537H7.0905ZM8.50859 17.0037L8.50716 24.117L8.57142 24.1643C11.1127 25.9498 14.4262 26.9204 18.4239 26.9204C22.6795 26.9204 26.6385 25.2832 29.5236 22.4869L29.7119 22.2978L29.543 22.1556C28.8857 21.6413 28.0793 21.3222 27.2143 21.2635L26.9239 21.2537L23.9323 21.2523C24.0358 21.7083 24.0905 22.1829 24.0905 22.6704V24.0871H11.3405V21.2537L20.9597 21.2523L20.911 21.1411C20.3719 20.0168 19.257 19.2212 17.9484 19.1362L17.7155 19.1287L13.5655 19.1284C12.2802 17.8176 10.4894 17.0042 8.50859 17.0037ZM5.67383 15.5871H4.25716V25.5037H5.67383V15.5871ZM19.3396 5.06882L19.8401 5.57L20.3413 5.06882C21.7244 3.68572 23.967 3.68572 25.3501 5.06882C26.7332 6.45193 26.7332 8.69439 25.3501 10.0775L19.8405 15.5871L14.331 10.0775C12.9478 8.69439 12.9478 6.45193 14.331 5.06882C15.7141 3.68572 17.9565 3.68572 19.3396 5.06882ZM16.3344 7.07229C16.0885 7.31818 16.0613 7.69986 16.2514 7.97486L16.3329 8.07251L19.8391 11.5793L23.3466 8.07403C23.5924 7.82814 23.6198 7.44646 23.4285 7.17039L23.3466 7.07229C23.1007 6.82641 22.719 6.79908 22.4427 6.99055L22.3445 7.0726L19.8383 9.57814L17.3346 7.07077L17.2381 6.99033C16.962 6.79908 16.5803 6.82641 16.3344 7.07229Z" fill="#00AE6C"/>
</svg>
