<svg width="34" height="34" viewBox="0 0 34 34" fill="none" xmlns="http://www.w3.org/2000/svg">
<path d="M25.5 11.3334H28.3333C29.1158 11.3334 29.75 11.9677 29.75 12.7501V29.7501C29.75 30.5325 29.1158 31.1667 28.3333 31.1667H5.66667C4.88427 31.1667 4.25 30.5325 4.25 29.7501V12.7501C4.25 11.9677 4.88427 11.3334 5.66667 11.3334H8.5V9.91675C8.5 5.22233 12.3056 1.41675 17 1.41675C21.6944 1.41675 25.5 5.22233 25.5 9.91675V11.3334ZM7.08333 14.1667V28.3334H26.9167V14.1667H7.08333ZM15.5833 19.8334H18.4167V22.6667H15.5833V19.8334ZM9.91667 19.8334H12.75V22.6667H9.91667V19.8334ZM21.25 19.8334H24.0833V22.6667H21.25V19.8334ZM22.6667 11.3334V9.91675C22.6667 6.78713 20.1296 4.25008 17 4.25008C13.8704 4.25008 11.3333 6.78713 11.3333 9.91675V11.3334H22.6667Z" fill="#00AE6C"/>
</svg>
