<svg width="34" height="34" viewBox="0 0 34 34" fill="none" xmlns="http://www.w3.org/2000/svg">
<path d="M24.083 2.83325C24.8654 2.83325 25.4997 3.46752 25.4997 4.24992V9.91659H29.7497C30.5321 9.91659 31.1663 10.5509 31.1663 11.3333V25.4999C31.1663 26.2823 30.5321 26.9166 29.7497 26.9166H25.4997V29.7499C25.4997 30.5323 24.8654 31.1666 24.083 31.1666H9.91634C9.13394 31.1666 8.49967 30.5323 8.49967 29.7499V26.9166H4.24967C3.46728 26.9166 2.83301 26.2823 2.83301 25.4999V11.3333C2.83301 10.5509 3.46728 9.91659 4.24967 9.91659H8.49967V4.24992C8.49967 3.46752 9.13394 2.83325 9.91634 2.83325H24.083ZM22.6663 24.0833H11.333V28.3333H22.6663V24.0833ZM28.333 12.7499H5.66634V24.0833H8.49967V22.6666C8.49967 21.8842 9.13394 21.2499 9.91634 21.2499H24.083C24.8654 21.2499 25.4997 21.8842 25.4997 22.6666V24.0833H28.333V12.7499ZM11.333 14.1666V16.9999H7.08301V14.1666H11.333ZM22.6663 5.66659H11.333V9.91659H22.6663V5.66659Z" fill="#00AE6C"/>
</svg>
