<svg width="34" height="34" viewBox="0 0 34 34" fill="none" xmlns="http://www.w3.org/2000/svg">
<path d="M16.9997 31.1666C9.17564 31.1666 2.83301 24.8239 2.83301 16.9999C2.83301 9.17588 9.17564 2.83325 16.9997 2.83325C24.8236 2.83325 31.1663 9.17588 31.1663 16.9999C31.1663 24.8239 24.8236 31.1666 16.9997 31.1666ZM16.9997 28.3333C23.2589 28.3333 28.333 23.2592 28.333 16.9999C28.333 10.7407 23.2589 5.66659 16.9997 5.66659C10.7404 5.66659 5.66634 10.7407 5.66634 16.9999C5.66634 23.2592 10.7404 28.3333 16.9997 28.3333ZM18.4163 16.9999H24.083V19.8333H15.583V9.91659H18.4163V16.9999Z" fill="#00AE6C"/>
</svg>
