<svg width="34" height="34" viewBox="0 0 34 34" fill="none" xmlns="http://www.w3.org/2000/svg">
<path d="M24.0837 13.0334L31.4692 7.86359C31.7896 7.63924 32.2313 7.71719 32.4556 8.03768C32.5389 8.15674 32.5837 8.29855 32.5837 8.44388V25.5563C32.5837 25.9475 32.2665 26.2647 31.8753 26.2647C31.73 26.2647 31.5882 26.2199 31.4692 26.1366L24.0837 20.9667V26.9167C24.0837 27.6992 23.4494 28.3334 22.667 28.3334H2.83366C2.05126 28.3334 1.41699 27.6992 1.41699 26.9167V7.08341C1.41699 6.30102 2.05126 5.66675 2.83366 5.66675H22.667C23.4494 5.66675 24.0837 6.30102 24.0837 7.08341V13.0334ZM24.0837 17.5082L29.7503 21.4749V12.5253L24.0837 16.4919V17.5082ZM4.25033 8.50008V25.5001H21.2503V8.50008H4.25033ZM7.08366 11.3334H9.91699V14.1667H7.08366V11.3334Z" fill="#00AE6C"/>
</svg>
