<svg width="34" height="34" viewBox="0 0 34 34" fill="none" xmlns="http://www.w3.org/2000/svg">
<path d="M0.976562 9.91184C5.35522 6.37081 10.9298 4.25 16.9997 4.25C23.0695 4.25 28.6441 6.37081 33.0229 9.91184L30.3523 13.2182C26.7034 10.2673 22.0579 8.5 16.9997 8.5C11.9414 8.5 7.29597 10.2673 3.64709 13.2182L0.976562 9.91184ZM5.42743 15.4224C8.5898 12.865 12.6159 11.3333 16.9997 11.3333C21.3836 11.3333 25.4096 12.865 28.572 15.4224L25.9015 18.7288C23.4689 16.7616 20.3719 15.5833 16.9997 15.5833C13.6275 15.5833 10.5305 16.7616 8.09796 18.7288L5.42743 15.4224ZM9.87831 20.9331C11.8244 19.3592 14.3019 18.4167 16.9997 18.4167C19.6975 18.4167 22.1751 19.3592 24.1211 20.9331L21.4506 24.2395C20.2342 23.2557 18.6858 22.6667 16.9997 22.6667C15.3136 22.6667 13.7651 23.2557 12.5488 24.2395L9.87831 20.9331ZM14.3291 26.4436C15.059 25.8535 15.9881 25.5 16.9997 25.5C18.0113 25.5 18.9404 25.8535 19.6703 26.4436L16.9997 29.75L14.3291 26.4436Z" fill="#00AE6C"/>
</svg>
