<svg width="260" height="260" viewBox="0 0 260 260" fill="none" xmlns="http://www.w3.org/2000/svg">
<g clip-path="url(#clip0_896_92)">
<rect width="260" height="260" rx="80" fill="black"/>
<path d="M38 129.594C38 116.576 40.8548 104.997 46.5644 94.8581C52.274 84.5939 60.2039 76.6453 70.3543 71.0125C80.6316 65.2545 92.2411 62.3755 105.183 62.3755C121.043 62.3755 134.619 66.5063 145.911 74.7677C157.203 83.0292 164.753 94.2949 168.559 108.565H132.779C130.115 103.057 126.308 98.8637 121.36 95.9847C116.539 93.1057 111.019 91.6662 104.802 91.6662C94.7787 91.6662 86.6584 95.1085 80.4413 101.993C74.2242 108.878 71.1156 118.078 71.1156 129.594C71.1156 141.11 74.2242 150.31 80.4413 157.195C86.6584 164.079 94.7787 167.522 104.802 167.522C111.019 167.522 116.539 166.082 121.36 163.203C126.308 160.324 130.115 156.131 132.779 150.623H168.559C164.753 164.893 157.203 176.159 145.911 184.42C134.619 192.556 121.043 196.624 105.183 196.624C92.2411 196.624 80.6316 193.808 70.3543 188.175C60.2039 182.417 52.274 174.469 46.5644 164.33C40.8548 154.191 38 142.612 38 129.594Z" fill="white"/>
<path d="M251.675 197C239.114 197 227.568 194.121 217.037 188.363C206.633 182.605 198.322 174.594 192.105 164.33C186.015 153.94 182.97 142.299 182.97 129.406C182.97 116.513 186.015 104.935 192.105 94.6704C198.322 84.4061 206.633 76.395 217.037 70.637C227.568 64.879 239.114 62 251.675 62C264.236 62 275.719 64.879 286.123 70.637C296.654 76.395 304.901 84.4061 310.865 94.6704C316.955 104.935 320 116.513 320 129.406C320 142.299 316.955 153.94 310.865 164.33C304.774 174.594 296.527 182.605 286.123 188.363C275.719 194.121 264.236 197 251.675 197ZM251.675 167.709C262.333 167.709 270.834 164.204 277.178 157.195C283.649 150.185 286.884 140.922 286.884 129.406C286.884 117.765 283.649 108.502 277.178 101.618C270.834 94.6078 262.333 91.1029 251.675 91.1029C240.891 91.1029 232.263 94.5452 225.792 101.43C219.448 108.314 216.276 117.64 216.276 129.406C216.276 141.047 219.448 150.373 225.792 157.382C232.263 164.267 240.891 167.709 251.675 167.709Z" fill="white"/>
</g>
<defs>
<clipPath id="clip0_896_92">
<rect width="260" height="260" rx="80" fill="white"/>
</clipPath>
</defs>
</svg>
