<svg width="119" height="16" viewBox="0 0 119 16" fill="none" xmlns="http://www.w3.org/2000/svg">
<path d="M0.814453 8.01113C0.814453 6.46824 1.14825 5.09597 1.81584 3.8943C2.48344 2.67779 3.41065 1.73574 4.59748 1.06815C5.79915 0.38572 7.15659 0.0445057 8.66981 0.0445057C10.5242 0.0445057 12.1116 0.534074 13.432 1.51321C14.7523 2.49235 15.635 3.82754 16.0801 5.51878H11.8965C11.585 4.86602 11.1399 4.36903 10.5613 4.02782C9.99758 3.6866 9.35224 3.51599 8.6253 3.51599C7.4533 3.51599 6.50384 3.92397 5.7769 4.73992C5.04997 5.55586 4.6865 6.64627 4.6865 8.01113C4.6865 9.37598 5.04997 10.4664 5.7769 11.2823C6.50384 12.0983 7.4533 12.5063 8.6253 12.5063C9.35224 12.5063 9.99758 12.3357 10.5613 11.9944C11.1399 11.6532 11.585 11.1562 11.8965 10.5035H16.0801C15.635 12.1947 14.7523 13.5299 13.432 14.509C12.1116 15.4733 10.5242 15.9555 8.66981 15.9555C7.15659 15.9555 5.79915 15.6217 4.59748 14.9541C3.41065 14.2717 2.48344 13.3296 1.81584 12.128C1.14825 10.9263 0.814453 9.55401 0.814453 8.01113Z" fill="white"/>
<path d="M25.7985 16C24.3298 16 22.9797 15.6588 21.7484 14.9764C20.5319 14.2939 19.5602 13.3445 18.8332 12.128C18.1211 10.8966 17.7651 9.51692 17.7651 7.98887C17.7651 6.46082 18.1211 5.08855 18.8332 3.87204C19.5602 2.65554 20.5319 1.70607 21.7484 1.02364C22.9797 0.341215 24.3298 0 25.7985 0C27.2672 0 28.6098 0.341215 29.8263 1.02364C31.0576 1.70607 32.0219 2.65554 32.7192 3.87204C33.4313 5.08855 33.7873 6.46082 33.7873 7.98887C33.7873 9.51692 33.4313 10.8966 32.7192 12.128C32.0071 13.3445 31.0428 14.2939 29.8263 14.9764C28.6098 15.6588 27.2672 16 25.7985 16ZM25.7985 12.5285C27.0446 12.5285 28.0386 12.1131 28.7804 11.2823C29.537 10.4516 29.9153 9.35373 29.9153 7.98887C29.9153 6.60918 29.537 5.51136 28.7804 4.69541C28.0386 3.86463 27.0446 3.44923 25.7985 3.44923C24.5374 3.44923 23.5286 3.85721 22.772 4.67316C22.0303 5.4891 21.6594 6.59434 21.6594 7.98887C21.6594 9.36857 22.0303 10.4738 22.772 11.3046C23.5286 12.1205 24.5374 12.5285 25.7985 12.5285Z" fill="white"/>
<path d="M57.4008 0.222531L53.3285 15.8442H48.7221L46.2298 5.56328L43.6484 15.8442H39.042L35.081 0.222531H39.1533L41.4009 11.5939L44.1825 0.222531H48.3661L51.0365 11.5939L53.3063 0.222531H57.4008Z" fill="white"/>
<path d="M66.6973 16C65.2286 16 63.8785 15.6588 62.6472 14.9764C61.4307 14.2939 60.459 13.3445 59.732 12.128C59.0199 10.8966 58.6639 9.51692 58.6639 7.98887C58.6639 6.46082 59.0199 5.08855 59.732 3.87204C60.459 2.65554 61.4307 1.70607 62.6472 1.02364C63.8785 0.341215 65.2286 0 66.6973 0C68.166 0 69.5086 0.341215 70.7251 1.02364C71.9564 1.70607 72.9207 2.65554 73.618 3.87204C74.3301 5.08855 74.6861 6.46082 74.6861 7.98887C74.6861 9.51692 74.3301 10.8966 73.618 12.128C72.9059 13.3445 71.9416 14.2939 70.7251 14.9764C69.5086 15.6588 68.166 16 66.6973 16ZM66.6973 12.5285C67.9434 12.5285 68.9374 12.1131 69.6792 11.2823C70.4358 10.4516 70.8141 9.35373 70.8141 7.98887C70.8141 6.60918 70.4358 5.51136 69.6792 4.69541C68.9374 3.86463 67.9434 3.44923 66.6973 3.44923C65.4363 3.44923 64.4274 3.85721 63.6708 4.67316C62.9291 5.4891 62.5582 6.59434 62.5582 7.98887C62.5582 9.36857 62.9291 10.4738 63.6708 11.3046C64.4274 12.1205 65.4363 12.5285 66.6973 12.5285Z" fill="white"/>
<path d="M84.7698 15.8442L81.5208 9.94715H80.6084V15.8442H76.8031V0.222531H83.1898C84.4211 0.222531 85.467 0.437645 86.3275 0.867871C87.2028 1.2981 87.8555 1.89152 88.2858 2.64812C88.716 3.38989 88.9311 4.22068 88.9311 5.14047C88.9311 6.17895 88.6344 7.10617 88.041 7.92211C87.4624 8.73806 86.6019 9.31664 85.4596 9.65786L89.0646 15.8442H84.7698ZM80.6084 7.25452H82.9673C83.6645 7.25452 84.1838 7.08391 84.525 6.7427C84.881 6.40148 85.0591 5.91933 85.0591 5.29624C85.0591 4.70283 84.881 4.23551 84.525 3.8943C84.1838 3.55308 83.6645 3.38248 82.9673 3.38248H80.6084V7.25452Z" fill="white"/>
<path d="M100.377 15.8442L95.1251 8.94576V15.8442H91.3198V0.222531H95.1251V7.07649L100.332 0.222531H104.805L98.7524 7.87761L105.028 15.8442H100.377Z" fill="white"/>
<path d="M112.488 16C111.346 16 110.322 15.8146 109.418 15.4437C108.513 15.0728 107.786 14.5239 107.237 13.7969C106.703 13.07 106.421 12.1947 106.391 11.1711H110.441C110.501 11.7497 110.701 12.1947 111.042 12.5063C111.383 12.803 111.828 12.9513 112.377 12.9513C112.941 12.9513 113.386 12.8252 113.712 12.573C114.039 12.306 114.202 11.9425 114.202 11.4826C114.202 11.0969 114.068 10.7779 113.801 10.5257C113.549 10.2735 113.23 10.0658 112.845 9.90264C112.474 9.73945 111.94 9.55401 111.242 9.34631C110.233 9.03477 109.41 8.72323 108.772 8.41168C108.134 8.10014 107.585 7.64024 107.125 7.03199C106.666 6.42374 106.436 5.63004 106.436 4.6509C106.436 3.19703 106.962 2.06212 108.016 1.24618C109.069 0.415392 110.441 0 112.132 0C113.853 0 115.24 0.415392 116.294 1.24618C117.347 2.06212 117.911 3.20445 117.985 4.67316H113.868C113.838 4.16875 113.653 3.77561 113.312 3.49374C112.971 3.19703 112.533 3.04868 111.999 3.04868C111.539 3.04868 111.168 3.17478 110.886 3.42698C110.604 3.66435 110.463 4.01298 110.463 4.47288C110.463 4.97728 110.701 5.37042 111.176 5.65229C111.65 5.93417 112.392 6.23829 113.401 6.56467C114.41 6.90589 115.226 7.23227 115.849 7.54381C116.487 7.85535 117.036 8.30783 117.495 8.90125C117.955 9.49467 118.185 10.2587 118.185 11.1933C118.185 12.0834 117.955 12.892 117.495 13.6189C117.05 14.3458 116.398 14.9244 115.537 15.3547C114.677 15.7849 113.66 16 112.488 16Z" fill="white"/>
</svg>
