<svg width="169" height="24" viewBox="0 0 169 24" fill="none" xmlns="http://www.w3.org/2000/svg">
<path d="M0 12.016C0 9.79733 0.48 7.824 1.44 6.096C2.4 4.34666 3.73333 2.992 5.44 2.032C7.168 1.05066 9.12 0.559998 11.296 0.559998C13.9627 0.559998 16.2453 1.264 18.144 2.672C20.0427 4.08 21.312 6 21.952 8.432H15.936C15.488 7.49333 14.848 6.77867 14.016 6.288C13.2053 5.79733 12.2773 5.552 11.232 5.552C9.54667 5.552 8.18133 6.13866 7.136 7.312C6.09067 8.48533 5.568 10.0533 5.568 12.016C5.568 13.9787 6.09067 15.5467 7.136 16.72C8.18133 17.8933 9.54667 18.48 11.232 18.48C12.2773 18.48 13.2053 18.2347 14.016 17.744C14.848 17.2533 15.488 16.5387 15.936 15.6H21.952C21.312 18.032 20.0427 19.952 18.144 21.36C16.2453 22.7467 13.9627 23.44 11.296 23.44C9.12 23.44 7.168 22.96 5.44 22C3.73333 21.0187 2.4 19.664 1.44 17.936C0.48 16.208 0 14.2347 0 12.016Z" fill="black"/>
<path d="M35.927 23.504C33.815 23.504 31.8737 23.0133 30.103 22.032C28.3537 21.0507 26.9563 19.6853 25.911 17.936C24.887 16.1653 24.375 14.1813 24.375 11.984C24.375 9.78666 24.887 7.81333 25.911 6.064C26.9563 4.31466 28.3537 2.94933 30.103 1.968C31.8737 0.986665 33.815 0.495998 35.927 0.495998C38.039 0.495998 39.9697 0.986665 41.719 1.968C43.4897 2.94933 44.8763 4.31466 45.879 6.064C46.903 7.81333 47.415 9.78666 47.415 11.984C47.415 14.1813 46.903 16.1653 45.879 17.936C44.855 19.6853 43.4683 21.0507 41.719 22.032C39.9697 23.0133 38.039 23.504 35.927 23.504ZM35.927 18.512C37.719 18.512 39.1483 17.9147 40.215 16.72C41.303 15.5253 41.847 13.9467 41.847 11.984C41.847 10 41.303 8.42133 40.215 7.248C39.1483 6.05333 37.719 5.456 35.927 5.456C34.1137 5.456 32.663 6.04266 31.575 7.216C30.5083 8.38933 29.975 9.97866 29.975 11.984C29.975 13.968 30.5083 15.5573 31.575 16.752C32.663 17.9253 34.1137 18.512 35.927 18.512Z" fill="black"/>
<path d="M81.3712 0.815998L75.5153 23.28H68.8913L65.3073 8.496L61.5952 23.28H54.9712L49.2752 0.815998H55.1312L58.3633 17.168L62.3633 0.815998H68.3792L72.2193 17.168L75.4833 0.815998H81.3712Z" fill="black"/>
<path d="M94.7395 23.504C92.6275 23.504 90.6862 23.0133 88.9155 22.032C87.1662 21.0507 85.7688 19.6853 84.7235 17.936C83.6995 16.1653 83.1875 14.1813 83.1875 11.984C83.1875 9.78666 83.6995 7.81333 84.7235 6.064C85.7688 4.31466 87.1662 2.94933 88.9155 1.968C90.6862 0.986665 92.6275 0.495998 94.7395 0.495998C96.8515 0.495998 98.7822 0.986665 100.532 1.968C102.302 2.94933 103.689 4.31466 104.691 6.064C105.715 7.81333 106.228 9.78666 106.228 11.984C106.228 14.1813 105.715 16.1653 104.691 17.936C103.667 19.6853 102.281 21.0507 100.532 22.032C98.7822 23.0133 96.8515 23.504 94.7395 23.504ZM94.7395 18.512C96.5315 18.512 97.9608 17.9147 99.0275 16.72C100.115 15.5253 100.66 13.9467 100.66 11.984C100.66 10 100.115 8.42133 99.0275 7.248C97.9608 6.05333 96.5315 5.456 94.7395 5.456C92.9262 5.456 91.4755 6.04266 90.3875 7.216C89.3208 8.38933 88.7875 9.97866 88.7875 11.984C88.7875 13.968 89.3208 15.5573 90.3875 16.752C91.4755 17.9253 92.9262 18.512 94.7395 18.512Z" fill="black"/>
<path d="M120.728 23.28L116.056 14.8H114.744V23.28H109.272V0.815998H118.456C120.226 0.815998 121.73 1.12533 122.968 1.744C124.226 2.36266 125.165 3.216 125.784 4.304C126.402 5.37066 126.712 6.56533 126.712 7.888C126.712 9.38133 126.285 10.7147 125.432 11.888C124.6 13.0613 123.362 13.8933 121.72 14.384L126.904 23.28H120.728ZM114.744 10.928H118.136C119.138 10.928 119.885 10.6827 120.376 10.192C120.888 9.70133 121.144 9.008 121.144 8.112C121.144 7.25867 120.888 6.58667 120.376 6.096C119.885 5.60533 119.138 5.36 118.136 5.36H114.744V10.928Z" fill="black"/>
<path d="M143.171 23.28L135.619 13.36V23.28H130.147V0.815998H135.619V10.672L143.107 0.815998H149.539L140.835 11.824L149.859 23.28H143.171Z" fill="black"/>
<path d="M160.587 23.504C158.945 23.504 157.473 23.2373 156.171 22.704C154.87 22.1707 153.825 21.3813 153.035 20.336C152.267 19.2907 151.862 18.032 151.819 16.56H157.643C157.729 17.392 158.017 18.032 158.507 18.48C158.998 18.9067 159.638 19.12 160.427 19.12C161.238 19.12 161.878 18.9387 162.347 18.576C162.817 18.192 163.051 17.6693 163.051 17.008C163.051 16.4533 162.859 15.9947 162.475 15.632C162.113 15.2693 161.654 14.9707 161.099 14.736C160.566 14.5013 159.798 14.2347 158.795 13.936C157.345 13.488 156.161 13.04 155.243 12.592C154.326 12.144 153.537 11.4827 152.875 10.608C152.214 9.73333 151.883 8.592 151.883 7.184C151.883 5.09333 152.641 3.46133 154.155 2.288C155.67 1.09333 157.643 0.495998 160.075 0.495998C162.55 0.495998 164.545 1.09333 166.059 2.288C167.574 3.46133 168.385 5.104 168.491 7.216H162.571C162.529 6.49066 162.262 5.92533 161.771 5.52C161.281 5.09333 160.651 4.88 159.883 4.88C159.222 4.88 158.689 5.06133 158.283 5.424C157.878 5.76533 157.675 6.26666 157.675 6.928C157.675 7.65333 158.017 8.21866 158.699 8.624C159.382 9.02933 160.449 9.46667 161.899 9.936C163.35 10.4267 164.523 10.896 165.419 11.344C166.337 11.792 167.126 12.4427 167.787 13.296C168.449 14.1493 168.779 15.248 168.779 16.592C168.779 17.872 168.449 19.0347 167.787 20.08C167.147 21.1253 166.209 21.9573 164.971 22.576C163.734 23.1947 162.273 23.504 160.587 23.504Z" fill="black"/>
</svg>
