<svg width="62" height="62" viewBox="0 0 62 62" fill="none" xmlns="http://www.w3.org/2000/svg">
<rect width="62" height="62" rx="20" fill="#00AE6C"/>
<path d="M43.2982 19.5702C42.4445 18.724 41.322 18.2045 40.1259 18.102C38.9297 17.9995 37.7356 18.3204 36.751 19.009C39.916 20.3302 42.5016 22.7487 44.0356 25.8228C44.6277 24.848 44.8768 23.7024 44.7432 22.5689C44.6095 21.4355 44.1008 20.3796 43.2982 19.5702Z" fill="white"/>
<path d="M25.4863 19.2053C24.5057 18.4245 23.274 18.0306 22.0237 18.0978C20.7733 18.1651 19.5907 18.689 18.6992 19.5705C17.8149 20.4629 17.2913 21.6517 17.2289 22.9081C17.1666 24.1644 17.57 25.3994 18.3616 26.3754C19.787 23.1957 22.3202 20.6463 25.4863 19.2053Z" fill="white"/>
<path d="M31.3314 19.7112C28.8758 19.7163 26.4767 20.4501 24.4364 21.8201C22.3961 23.1901 20.806 25.1349 19.8664 27.4096C18.9268 29.6842 18.6798 32.1868 19.1566 34.602C19.6333 37.0171 20.8125 39.2367 22.5454 40.9811L20.2801 43.2523C20.1978 43.3366 20.1329 43.4362 20.0891 43.5455C20.0453 43.6549 20.0233 43.7719 20.0246 43.8897C20.0258 44.0076 20.0502 44.124 20.0963 44.2325C20.1424 44.3409 20.2094 44.4391 20.2934 44.5216C20.3774 44.604 20.4768 44.6691 20.5859 44.7131C20.6949 44.757 20.8116 44.779 20.9291 44.7778C21.0467 44.7765 21.1628 44.7521 21.271 44.7058C21.3791 44.6596 21.4771 44.5924 21.5593 44.5082L23.9224 42.139C26.0834 43.7785 28.7223 44.6598 31.4322 44.6469C34.1422 44.6341 36.7727 43.7277 38.918 42.0677L41.3522 44.5082C41.5221 44.6541 41.7407 44.7304 41.9643 44.7217C42.1879 44.7131 42.4 44.6201 42.5582 44.4615C42.7164 44.3029 42.8091 44.0902 42.8177 43.8661C42.8264 43.6419 42.7503 43.4227 42.6048 43.2523L40.2151 40.892C41.9236 39.1373 43.0783 36.9165 43.5346 34.5074C43.9909 32.0982 43.7286 29.6077 42.7805 27.3472C41.8324 25.0867 40.2406 23.1567 38.2042 21.7985C36.1678 20.4403 33.7772 19.7143 31.3314 19.7112ZM37.9675 35.2361C37.8657 35.4483 37.6843 35.6114 37.4629 35.6898C37.2415 35.7683 36.9981 35.7557 36.786 35.6547L30.443 32.5729V24.7793C30.443 24.5431 30.5366 24.3165 30.7032 24.1495C30.8698 23.9824 31.0958 23.8886 31.3314 23.8886C31.567 23.8886 31.793 23.9824 31.9596 24.1495C32.1262 24.3165 32.2198 24.5431 32.2198 24.7793V31.4595L37.55 34.0514C37.6563 34.1004 37.752 34.1699 37.8314 34.2559C37.9109 34.342 37.9726 34.443 38.0131 34.5531C38.0535 34.6632 38.0719 34.7802 38.0671 34.8974C38.0623 35.0146 38.0345 35.1297 37.9853 35.2361H37.9675Z" fill="white"/>
</svg>
