<svg width="62" height="62" viewBox="0 0 62 62" fill="none" xmlns="http://www.w3.org/2000/svg">
<rect width="62" height="62" rx="16" fill="#00AE6C"/>
<path d="M44.0389 30.3751C42.8213 24.746 40.9887 21.7416 38.2703 20.9209C37.6989 20.7495 37.1062 20.6639 36.5107 20.6667C35.7236 20.6667 35.0381 20.8628 34.313 21.0706C33.4392 21.3212 32.4466 21.606 30.9993 21.606C29.5519 21.606 28.5587 21.3218 27.6832 21.0712C26.9575 20.8628 26.2726 20.6667 25.4878 20.6667C24.8721 20.6645 24.259 20.7499 23.6662 20.9203C20.9621 21.7374 19.1307 24.7407 17.8953 30.3716C16.5668 36.431 17.2207 40.2567 19.729 41.1443C20.0728 41.2682 20.4345 41.3321 20.7991 41.3333C22.5174 41.3333 23.8953 39.8698 24.8368 38.6717C25.9006 37.3156 27.1458 36.6276 30.9993 36.6276C34.441 36.6276 35.8654 37.1049 37.0957 38.6717C37.869 39.6567 38.5999 40.3459 39.329 40.7797C40.2986 41.3562 41.2677 41.4842 42.2087 41.1537C43.691 40.6365 44.5407 39.2693 44.7348 37.089C44.8823 35.4171 44.655 33.221 44.0389 30.3751ZM28.2435 30.0593H26.4064V31.9378C26.4064 32.1869 26.3096 32.4258 26.1374 32.6019C25.9651 32.7781 25.7314 32.877 25.4878 32.877C25.2442 32.877 25.0106 32.7781 24.8383 32.6019C24.666 32.4258 24.5693 32.1869 24.5693 31.9378V30.0593H22.7321C22.4885 30.0593 22.2548 29.9603 22.0826 29.7842C21.9103 29.608 21.8135 29.3691 21.8135 29.12C21.8135 28.8709 21.9103 28.632 22.0826 28.4559C22.2548 28.2797 22.4885 28.1808 22.7321 28.1808H24.5693V26.3022C24.5693 26.0531 24.666 25.8142 24.8383 25.6381C25.0106 25.4619 25.2442 25.363 25.4878 25.363C25.7314 25.363 25.9651 25.4619 26.1374 25.6381C26.3096 25.8142 26.4064 26.0531 26.4064 26.3022V28.1808H28.2435C28.4872 28.1808 28.7208 28.2797 28.8931 28.4559C29.0653 28.632 29.1621 28.8709 29.1621 29.12C29.1621 29.3691 29.0653 29.608 28.8931 29.7842C28.7208 29.9603 28.4872 30.0593 28.2435 30.0593ZM33.066 30.2941C32.8389 30.2941 32.6169 30.2252 32.4281 30.0962C32.2393 29.9672 32.0921 29.7838 32.0052 29.5693C31.9183 29.3548 31.8956 29.1187 31.9399 28.891C31.9842 28.6632 32.0935 28.454 32.2541 28.2898C32.4147 28.1256 32.6193 28.0138 32.842 27.9685C33.0648 27.9232 33.2956 27.9464 33.5054 28.0353C33.7152 28.1242 33.8946 28.2747 34.0207 28.4677C34.1469 28.6608 34.2143 28.8878 34.2143 29.12C34.2143 29.4314 34.0933 29.73 33.8779 29.9502C33.6626 30.1704 33.3706 30.2941 33.066 30.2941ZM35.5921 32.877C35.3649 32.877 35.1428 32.8081 34.9539 32.679C34.765 32.5498 34.6178 32.3663 34.531 32.1516C34.4442 31.9369 34.4216 31.7007 34.4662 31.4728C34.5107 31.245 34.6204 31.0358 34.7812 30.8717C34.9421 30.7077 35.1469 30.5961 35.3699 30.5511C35.5928 30.5061 35.8237 30.5298 36.0335 30.6191C36.2433 30.7084 36.4224 30.8594 36.5482 31.0528C36.674 31.2463 36.7409 31.4736 36.7403 31.7059C36.7396 32.0168 36.6183 32.3147 36.403 32.5342C36.1878 32.7537 35.8961 32.877 35.5921 32.877ZM35.5921 27.7111C35.365 27.7111 35.143 27.6423 34.9542 27.5133C34.7654 27.3842 34.6182 27.2009 34.5313 26.9864C34.4444 26.7718 34.4217 26.5357 34.466 26.308C34.5103 26.0803 34.6196 25.8711 34.7802 25.7069C34.9408 25.5427 35.1454 25.4308 35.3681 25.3855C35.5908 25.3402 35.8217 25.3635 36.0315 25.4524C36.2413 25.5412 36.4206 25.6917 36.5468 25.8848C36.673 26.0778 36.7403 26.3048 36.7403 26.5371C36.7403 26.8484 36.6194 27.1471 36.404 27.3672C36.1887 27.5874 35.8966 27.7111 35.5921 27.7111ZM38.1182 30.2941C37.8911 30.2941 37.6691 30.2252 37.4803 30.0962C37.2914 29.9672 37.1443 29.7838 37.0574 29.5693C36.9705 29.3548 36.9477 29.1187 36.992 28.891C37.0363 28.6632 37.1457 28.454 37.3063 28.2898C37.4669 28.1256 37.6714 28.0138 37.8942 27.9685C38.1169 27.9232 38.3478 27.9464 38.5576 28.0353C38.7674 28.1242 38.9467 28.2747 39.0729 28.4677C39.1991 28.6608 39.2664 28.8878 39.2664 29.12C39.2664 29.4314 39.1454 29.73 38.9301 29.9502C38.7148 30.1704 38.4227 30.2941 38.1182 30.2941Z" fill="white"/>
</svg>
