<svg width="62" height="62" viewBox="0 0 62 62" fill="none" xmlns="http://www.w3.org/2000/svg">
<rect width="62" height="62" rx="16" fill="#00AE6C"/>
<path d="M38.3464 36.509H26.8868L24.5333 38.5181L22.1798 36.509H17.2227V37.8867C17.2227 39.6426 18.4355 41.073 19.9354 41.1011C20.0749 41.9691 20.4125 42.7532 20.9205 43.3668C21.6718 44.2743 22.7642 44.7748 23.996 44.7748H31.573C32.8048 44.7748 33.8972 44.2743 34.6486 43.3656C35.1566 42.752 35.4941 41.9679 35.6336 41.1C36.4303 41.0856 37.1461 40.6752 37.6426 40.0306C38.1064 39.4127 38.3537 38.6592 38.3464 37.8867V36.509Z" fill="white"/>
<path d="M22.3314 34.6722L24.5316 36.2903L26.7513 34.6722H38.3464V34.213C38.3457 33.6839 38.1627 33.1711 37.8281 32.7613C37.4935 32.3514 37.0278 32.0694 36.5095 31.9628C36.4625 30.2586 35.7633 28.8322 34.4712 27.8299C33.2761 26.8977 31.6792 26.4064 29.851 26.4064H25.7181C21.8021 26.4064 19.1496 28.6318 19.0595 31.9628C18.5412 32.0694 18.0755 32.3514 17.741 32.7613C17.4064 33.1711 17.2233 33.6839 17.2227 34.213V34.6722H22.3314Z" fill="white"/>
<path d="M42.8861 21.8143H38.6045L39.1165 19.7673L41.6761 18.8868L41.1021 17.2222L37.5432 18.3702L36.7114 21.8143H28.2441V23.6511H29.3204L29.4272 24.5696H29.8514C32.09 24.5696 34.0796 25.1952 35.5984 26.3788C36.4432 27.0298 37.128 27.8652 37.6006 28.8213C37.8918 29.4144 38.0991 30.0452 38.2165 30.6954C39.0718 31.2221 39.7061 32.0422 40.0008 33.0025C40.2954 33.9628 40.2302 34.9975 39.8174 35.9132C40.0593 36.5431 40.1834 37.212 40.1836 37.8867C40.1836 39.169 39.7474 40.3911 38.9552 41.3279C38.465 41.9119 37.8371 42.3646 37.1282 42.6453C36.8866 43.3338 36.5266 43.9748 36.0645 44.5395C35.9968 44.621 35.9273 44.7008 35.8561 44.7777H40.1836C41.1021 44.7777 41.5039 44.3185 41.6187 43.4575L43.7081 23.654H44.7758V21.8143H42.8861Z" fill="white"/>
</svg>
