<svg width="49" height="48" viewBox="0 0 49 48" fill="none" xmlns="http://www.w3.org/2000/svg">
<circle cx="25" cy="24" r="19" fill="white"/>
<path fill-rule="evenodd" clip-rule="evenodd" d="M48.5 24C48.5 37.2547 37.7547 48 24.5 48C11.2452 48 0.5 37.2547 0.5 24C0.5 10.7452 11.2452 0 24.5 0C37.7547 0 48.5 10.7452 48.5 24ZM12.512 16.8C12.512 15.48 13.58 14.4 14.9 14.4H34.1C35.42 14.4 36.5 15.48 36.5 16.8V31.2C36.5 32.52 35.42 33.6 34.1 33.6H14.9C13.58 33.6 12.5 32.52 12.5 31.2L12.512 16.8ZM24.5 25.2L14.9 19.1999V31.2H34.1V19.1999L24.5 25.2ZM24.5 22.8L14.9 16.8H34.1L24.5 22.8Z" fill="#252525"/>
</svg>
