<svg width="49" height="48" viewBox="0 0 49 48" fill="none" xmlns="http://www.w3.org/2000/svg">
<g clip-path="url(#clip0_810_2317)">
<path d="M25 48C38.2548 48 49 37.2548 49 24C49 10.7452 38.2548 0 25 0C11.7452 0 1 10.7452 1 24C1 37.2548 11.7452 48 25 48Z" fill="#252525"/>
<path d="M11.4815 23.4799L34.6216 14.5579C35.6956 14.1699 36.6336 14.8199 36.2856 16.4439L36.2875 16.4419L32.3475 35.0039C32.0555 36.3199 31.2736 36.6399 30.1796 36.0199L24.1796 31.5979L21.2855 34.3859C20.9655 34.7059 20.6955 34.9759 20.0755 34.9759L20.5015 28.8699L31.6215 18.8239C32.1056 18.3979 31.5135 18.1579 30.8755 18.5819L17.1336 27.2339L11.2095 25.3859C9.92355 24.9779 9.89555 24.0999 11.4815 23.4799Z" fill="white"/>
</g>
<defs>
<clipPath id="clip0_810_2317">
<rect width="48" height="48" fill="white" transform="translate(0.5)"/>
</clipPath>
</defs>
</svg>
