<svg width="49" height="48" viewBox="0 0 49 48" fill="none" xmlns="http://www.w3.org/2000/svg">
<g clip-path="url(#clip0_810_2295)">
<path d="M24.5 48C37.7548 48 48.5 37.2548 48.5 24C48.5 10.7452 37.7548 0 24.5 0C11.2452 0 0.5 10.7452 0.5 24C0.5 37.2548 11.2452 48 24.5 48Z" fill="#252525"/>
<path fill-rule="evenodd" clip-rule="evenodd" d="M23.5933 34.526H25.477C25.477 34.526 26.046 34.4635 26.3365 34.1503C26.6039 33.8628 26.5953 33.3229 26.5953 33.3229C26.5953 33.3229 26.5585 30.7953 27.7316 30.4231C28.888 30.0565 30.373 32.866 31.947 33.9463C33.1372 34.7638 34.0416 34.5846 34.0416 34.5846L38.2501 34.526C38.2501 34.526 40.4517 34.3903 39.4078 32.6594C39.3222 32.5178 38.7998 31.3789 36.2787 29.0387C33.6399 26.5894 33.9933 26.9856 37.172 22.7488C39.1079 20.1686 39.8818 18.5934 39.6401 17.9187C39.4095 17.2761 37.9857 17.446 37.9857 17.446L33.2471 17.4755C33.2471 17.4755 32.8959 17.4276 32.6353 17.5833C32.3808 17.736 32.2169 18.092 32.2169 18.092C32.2169 18.092 31.467 20.0886 30.4667 21.7867C28.3567 25.3697 27.513 25.5588 27.1682 25.3363C26.366 24.8178 26.5662 23.2533 26.5662 22.1418C26.5662 18.6696 27.0929 17.2218 25.5408 16.847C25.0257 16.7225 24.6466 16.6404 23.3293 16.6271C21.6386 16.6096 20.2075 16.6323 19.3972 17.0293C18.8582 17.2933 18.4423 17.8815 18.6956 17.9153C19.0088 17.9572 19.7181 18.1065 20.0941 18.6186C20.5797 19.2792 20.5626 20.7629 20.5626 20.7629C20.5626 20.7629 20.8416 24.8503 19.911 25.3581C19.2723 25.7064 18.3961 24.9953 16.515 21.7447C15.5511 20.0797 14.8234 18.2392 14.8234 18.2392C14.8234 18.2392 14.683 17.8952 14.4328 17.7112C14.129 17.4883 13.7046 17.4173 13.7046 17.4173L9.20178 17.4468C9.20178 17.4468 8.52582 17.4657 8.27768 17.7596C8.05693 18.021 8.26014 18.5617 8.26014 18.5617C8.26014 18.5617 11.7854 26.8093 15.777 30.9656C19.437 34.7762 23.5933 34.526 23.5933 34.526Z" fill="white"/>
</g>
<defs>
<clipPath id="clip0_810_2295">
<rect width="48" height="48" fill="white" transform="translate(0.5)"/>
</clipPath>
</defs>
</svg>
