<svg width="49" height="48" viewBox="0 0 49 48" fill="none" xmlns="http://www.w3.org/2000/svg">
<g clip-path="url(#clip0_810_2309)">
<circle cx="24.5" cy="24" r="24" fill="#252525"/>
<path d="M12.1985 35.9587L13.511 29.865C11.8241 27.2042 11.166 24.0193 11.6602 20.9079C12.1545 17.7964 13.7671 14.9722 16.1955 12.9651C18.6239 10.9581 21.7013 9.90611 24.8502 10.0066C27.999 10.1071 31.003 11.3531 33.2986 13.5109C35.5941 15.6687 37.0234 18.5899 37.3182 21.7266C37.6131 24.8632 36.7533 27.9997 34.9002 30.5475C33.047 33.0953 30.3279 34.8794 27.2529 35.565C24.1779 36.2505 20.9584 35.7905 18.1985 34.2712L12.1985 35.9587Z" fill="#25D366"/>
<path d="M12.1985 35.9587L13.511 29.865C11.8241 27.2042 11.166 24.0193 11.6602 20.9079C12.1545 17.7964 13.7671 14.9722 16.1955 12.9651C18.6239 10.9581 21.7013 9.90611 24.8502 10.0066C27.999 10.1071 31.003 11.3531 33.2986 13.5109C35.5941 15.6687 37.0234 18.5899 37.3182 21.7266C37.6131 24.8632 36.7533 27.9997 34.9002 30.5475C33.047 33.0953 30.3279 34.8794 27.2529 35.565C24.1779 36.2505 20.9584 35.7905 18.1985 34.2712L12.1985 35.9587Z" fill="#252525"/>
<path d="M12.1985 35.9587L13.511 29.865C11.8241 27.2042 11.166 24.0193 11.6602 20.9079C12.1545 17.7964 13.7671 14.9722 16.1955 12.9651C18.6239 10.9581 21.7013 9.90611 24.8502 10.0066C27.999 10.1071 31.003 11.3531 33.2986 13.5109C35.5941 15.6687 37.0234 18.5899 37.3182 21.7266C37.6131 24.8632 36.7533 27.9997 34.9002 30.5475C33.047 33.0953 30.3279 34.8794 27.2529 35.565C24.1779 36.2505 20.9584 35.7905 18.1985 34.2712L12.1985 35.9587Z" stroke="white" stroke-width="2"/>
<path d="M29.542 24.7088C29.2608 24.5213 28.9795 24.4276 28.6983 24.8026L27.5733 26.3026C27.292 26.4901 27.1045 26.5838 26.7295 26.3963C25.3233 25.6463 23.3545 24.8026 21.667 21.9901C21.5733 21.6151 21.7608 21.4276 21.9483 21.2401L22.792 19.9276C22.9795 19.7401 22.8858 19.5526 22.792 19.3651L21.667 16.6463C21.3858 15.8963 21.1045 15.9901 20.8233 15.9901H20.0733C19.8858 15.9901 19.5108 16.0838 19.1358 16.4588C17.0733 18.5213 17.917 21.4276 19.417 23.3026C19.6983 23.6776 21.5733 27.0526 25.6045 28.8338C28.6045 30.1463 29.2608 29.9588 30.1045 29.7713C31.1358 29.6776 32.167 28.8338 32.6358 27.9901C32.7295 27.7088 33.1983 26.4901 32.8233 26.3026" fill="white"/>
</g>
<defs>
<clipPath id="clip0_810_2309">
<rect width="48" height="48" fill="white" transform="translate(0.5)"/>
</clipPath>
</defs>
</svg>
